<svg width="140" height="140" viewBox="0 0 140 140" fill="none" xmlns="http://www.w3.org/2000/svg">
<path fill-rule="evenodd" clip-rule="evenodd" d="M6 0C2.68629 0 0 2.6863 0 6V134C0 137.314 2.6863 140 6 140H134C137.314 140 140 137.314 140 134V6C140 2.68629 137.314 0 134 0H6ZM78 20H51V36H61.5V67H78V20ZM70 124C84.3594 124 96 112.359 96 98C96 83.6406 84.3594 72 70 72C55.6406 72 44 83.6406 44 98C44 112.359 55.6406 124 70 124ZM70 108C75.5229 108 80 103.523 80 98C80 92.4771 75.5229 88 70 88C64.4771 88 60 92.4771 60 98C60 103.523 64.4771 108 70 108Z" fill="#FEFEFE"/>
</svg>
